%TF.GenerationSoftware,KiCad,Pcbnew,9.0.6*%
%TF.CreationDate,2025-12-30T14:41:47-03:00*%
%TF.ProjectId,pico_ecg,7069636f-5f65-4636-972e-6b696361645f,rev?*%
%TF.SameCoordinates,Original*%
%TF.FileFunction,Soldermask,Top*%
%TF.FilePolarity,Negative*%
%FSLAX46Y46*%
G04 Gerber Fmt 4.6, Leading zero omitted, Abs format (unit mm)*
G04 Created by KiCad (PCBNEW 9.0.6) date 2025-12-30 14:41:47*
%MOMM*%
%LPD*%
G01*
G04 APERTURE LIST*
G04 Aperture macros list*
%AMRoundRect*
0 Rectangle with rounded corners*
0 $1 Rounding radius*
0 $2 $3 $4 $5 $6 $7 $8 $9 X,Y pos of 4 corners*
0 Add a 4 corners polygon primitive as box body*
4,1,4,$2,$3,$4,$5,$6,$7,$8,$9,$2,$3,0*
0 Add four circle primitives for the rounded corners*
1,1,$1+$1,$2,$3*
1,1,$1+$1,$4,$5*
1,1,$1+$1,$6,$7*
1,1,$1+$1,$8,$9*
0 Add four rect primitives between the rounded corners*
20,1,$1+$1,$2,$3,$4,$5,0*
20,1,$1+$1,$4,$5,$6,$7,0*
20,1,$1+$1,$6,$7,$8,$9,0*
20,1,$1+$1,$8,$9,$2,$3,0*%
%AMFreePoly0*
4,1,23,0.550000,-0.750000,0.000000,-0.750000,0.000000,-0.745722,-0.065263,-0.745722,-0.191342,-0.711940,-0.304381,-0.646677,-0.396677,-0.554381,-0.461940,-0.441342,-0.495722,-0.315263,-0.495722,-0.250000,-0.500000,-0.250000,-0.500000,0.250000,-0.495722,0.250000,-0.495722,0.315263,-0.461940,0.441342,-0.396677,0.554381,-0.304381,0.646677,-0.191342,0.711940,-0.065263,0.745722,0.000000,0.745722,
0.000000,0.750000,0.550000,0.750000,0.550000,-0.750000,0.550000,-0.750000,$1*%
%AMFreePoly1*
4,1,23,0.000000,0.745722,0.065263,0.745722,0.191342,0.711940,0.304381,0.646677,0.396677,0.554381,0.461940,0.441342,0.495722,0.315263,0.495722,0.250000,0.500000,0.250000,0.500000,-0.250000,0.495722,-0.250000,0.495722,-0.315263,0.461940,-0.441342,0.396677,-0.554381,0.304381,-0.646677,0.191342,-0.711940,0.065263,-0.745722,0.000000,-0.745722,0.000000,-0.750000,-0.550000,-0.750000,
-0.550000,0.750000,0.000000,0.750000,0.000000,0.745722,0.000000,0.745722,$1*%
%AMFreePoly2*
4,1,37,0.800000,0.796148,0.878414,0.796148,1.032228,0.765552,1.177117,0.705537,1.307515,0.618408,1.418408,0.507515,1.505537,0.377117,1.565552,0.232228,1.596148,0.078414,1.596148,-0.078414,1.565552,-0.232228,1.505537,-0.377117,1.418408,-0.507515,1.307515,-0.618408,1.177117,-0.705537,1.032228,-0.765552,0.878414,-0.796148,0.800000,-0.796148,0.800000,-0.800000,-1.400000,-0.800000,
-1.403843,-0.796157,-1.439018,-0.796157,-1.511114,-0.766294,-1.566294,-0.711114,-1.596157,-0.639018,-1.596157,-0.603843,-1.600000,-0.600000,-1.600000,0.600000,-1.596157,0.603843,-1.596157,0.639018,-1.566294,0.711114,-1.511114,0.766294,-1.439018,0.796157,-1.403843,0.796157,-1.400000,0.800000,0.800000,0.800000,0.800000,0.796148,0.800000,0.796148,$1*%
%AMFreePoly3*
4,1,37,1.403843,0.796157,1.439018,0.796157,1.511114,0.766294,1.566294,0.711114,1.596157,0.639018,1.596157,0.603843,1.600000,0.600000,1.600000,-0.600000,1.596157,-0.603843,1.596157,-0.639018,1.566294,-0.711114,1.511114,-0.766294,1.439018,-0.796157,1.403843,-0.796157,1.400000,-0.800000,-0.800000,-0.800000,-0.800000,-0.796148,-0.878414,-0.796148,-1.032228,-0.765552,-1.177117,-0.705537,
-1.307515,-0.618408,-1.418408,-0.507515,-1.505537,-0.377117,-1.565552,-0.232228,-1.596148,-0.078414,-1.596148,0.078414,-1.565552,0.232228,-1.505537,0.377117,-1.418408,0.507515,-1.307515,0.618408,-1.177117,0.705537,-1.032228,0.765552,-0.878414,0.796148,-0.800000,0.796148,-0.800000,0.800000,1.400000,0.800000,1.403843,0.796157,1.403843,0.796157,$1*%
%AMFreePoly4*
4,1,37,0.603843,0.796157,0.639018,0.796157,0.711114,0.766294,0.766294,0.711114,0.796157,0.639018,0.796157,0.603843,0.800000,0.600000,0.800000,-0.600000,0.796157,-0.603843,0.796157,-0.639018,0.766294,-0.711114,0.711114,-0.766294,0.639018,-0.796157,0.603843,-0.796157,0.600000,-0.800000,0.000000,-0.800000,0.000000,-0.796148,-0.078414,-0.796148,-0.232228,-0.765552,-0.377117,-0.705537,
-0.507515,-0.618408,-0.618408,-0.507515,-0.705537,-0.377117,-0.765552,-0.232228,-0.796148,-0.078414,-0.796148,0.078414,-0.765552,0.232228,-0.705537,0.377117,-0.618408,0.507515,-0.507515,0.618408,-0.377117,0.705537,-0.232228,0.765552,-0.078414,0.796148,0.000000,0.796148,0.000000,0.800000,0.600000,0.800000,0.603843,0.796157,0.603843,0.796157,$1*%
%AMFreePoly5*
4,1,37,0.000000,0.796148,0.078414,0.796148,0.232228,0.765552,0.377117,0.705537,0.507515,0.618408,0.618408,0.507515,0.705537,0.377117,0.765552,0.232228,0.796148,0.078414,0.796148,-0.078414,0.765552,-0.232228,0.705537,-0.377117,0.618408,-0.507515,0.507515,-0.618408,0.377117,-0.705537,0.232228,-0.765552,0.078414,-0.796148,0.000000,-0.796148,0.000000,-0.800000,-0.600000,-0.800000,
-0.603843,-0.796157,-0.639018,-0.796157,-0.711114,-0.766294,-0.766294,-0.711114,-0.796157,-0.639018,-0.796157,-0.603843,-0.800000,-0.600000,-0.800000,0.600000,-0.796157,0.603843,-0.796157,0.639018,-0.766294,0.711114,-0.711114,0.766294,-0.639018,0.796157,-0.603843,0.796157,-0.600000,0.800000,0.000000,0.800000,0.000000,0.796148,0.000000,0.796148,$1*%
G04 Aperture macros list end*
%ADD10R,1.700000X1.700000*%
%ADD11C,1.700000*%
%ADD12RoundRect,0.150000X0.587500X0.150000X-0.587500X0.150000X-0.587500X-0.150000X0.587500X-0.150000X0*%
%ADD13RoundRect,0.237500X0.237500X-0.250000X0.237500X0.250000X-0.237500X0.250000X-0.237500X-0.250000X0*%
%ADD14C,2.600000*%
%ADD15RoundRect,0.150000X0.200000X-0.150000X0.200000X0.150000X-0.200000X0.150000X-0.200000X-0.150000X0*%
%ADD16RoundRect,0.237500X-0.300000X-0.237500X0.300000X-0.237500X0.300000X0.237500X-0.300000X0.237500X0*%
%ADD17FreePoly0,90.000000*%
%ADD18R,1.500000X1.000000*%
%ADD19FreePoly1,90.000000*%
%ADD20RoundRect,0.237500X0.250000X0.237500X-0.250000X0.237500X-0.250000X-0.237500X0.250000X-0.237500X0*%
%ADD21RoundRect,0.237500X-0.237500X0.250000X-0.237500X-0.250000X0.237500X-0.250000X0.237500X0.250000X0*%
%ADD22RoundRect,0.237500X0.300000X0.237500X-0.300000X0.237500X-0.300000X-0.237500X0.300000X-0.237500X0*%
%ADD23R,1.117600X0.381000*%
%ADD24C,2.200000*%
%ADD25C,1.850000*%
%ADD26FreePoly2,180.000000*%
%ADD27RoundRect,0.200000X0.600000X0.600000X-0.600000X0.600000X-0.600000X-0.600000X0.600000X-0.600000X0*%
%ADD28RoundRect,0.800000X0.800000X0.000010X-0.800000X0.000010X-0.800000X-0.000010X0.800000X-0.000010X0*%
%ADD29C,1.600000*%
%ADD30FreePoly3,180.000000*%
%ADD31FreePoly4,180.000000*%
%ADD32FreePoly5,180.000000*%
%ADD33RoundRect,0.250000X-0.500000X-1.100000X0.500000X-1.100000X0.500000X1.100000X-0.500000X1.100000X0*%
%ADD34O,1.700000X1.700000*%
%ADD35RoundRect,0.237500X-0.250000X-0.237500X0.250000X-0.237500X0.250000X0.237500X-0.250000X0.237500X0*%
%ADD36RoundRect,0.243750X0.243750X0.456250X-0.243750X0.456250X-0.243750X-0.456250X0.243750X-0.456250X0*%
%ADD37C,1.924000*%
G04 APERTURE END LIST*
D10*
%TO.C,J11*%
X162560000Y-93726000D03*
D11*
X165100000Y-93726000D03*
%TD*%
D12*
%TO.C,U1*%
X186865500Y-100518000D03*
X186865500Y-98618000D03*
X184990500Y-99568000D03*
%TD*%
D13*
%TO.C,R62*%
X223266000Y-113688500D03*
X223266000Y-111863500D03*
%TD*%
D14*
%TO.C,J14*%
X239141000Y-50388500D03*
%TD*%
D15*
%TO.C,D4*%
X188722000Y-49592000D03*
X188722000Y-50992000D03*
%TD*%
D16*
%TO.C,C17*%
X227356500Y-86146501D03*
X229081500Y-86146501D03*
%TD*%
D13*
%TO.C,R11*%
X231648000Y-72413500D03*
X231648000Y-70588500D03*
%TD*%
D17*
%TO.C,JP2*%
X164919000Y-55631000D03*
D18*
X164919000Y-54331000D03*
D19*
X164919000Y-53031000D03*
%TD*%
D14*
%TO.C,J21*%
X216281000Y-43942000D03*
%TD*%
D16*
%TO.C,C22*%
X227356500Y-92369501D03*
X229081500Y-92369501D03*
%TD*%
D20*
%TO.C,R38*%
X223797500Y-49880500D03*
X221972500Y-49880500D03*
%TD*%
D16*
%TO.C,C8*%
X222022500Y-61889501D03*
X223747500Y-61889501D03*
%TD*%
D21*
%TO.C,R40*%
X233172000Y-51000000D03*
X233172000Y-52825000D03*
%TD*%
D13*
%TO.C,R43*%
X217805000Y-113688500D03*
X217805000Y-111863500D03*
%TD*%
D20*
%TO.C,R59*%
X236497500Y-88011000D03*
X234672500Y-88011000D03*
%TD*%
%TO.C,R41*%
X236497500Y-81661000D03*
X234672500Y-81661000D03*
%TD*%
%TO.C,R2*%
X223797500Y-82463501D03*
X221972500Y-82463501D03*
%TD*%
%TO.C,R60*%
X236370500Y-49530000D03*
X234545500Y-49530000D03*
%TD*%
D22*
%TO.C,C9*%
X223874500Y-109006501D03*
X222149500Y-109006501D03*
%TD*%
D16*
%TO.C,C23*%
X227356500Y-98719501D03*
X229081500Y-98719501D03*
%TD*%
D14*
%TO.C,J16*%
X192659000Y-43942000D03*
%TD*%
D22*
%TO.C,C11*%
X222123000Y-102656501D03*
X223848000Y-102656501D03*
%TD*%
D21*
%TO.C,R20*%
X233172000Y-108561500D03*
X233172000Y-110386500D03*
%TD*%
D14*
%TO.C,J19*%
X204369500Y-43942000D03*
%TD*%
D20*
%TO.C,R37*%
X220368500Y-48356500D03*
X218543500Y-48356500D03*
%TD*%
%TO.C,R45*%
X212494500Y-56261000D03*
X210669500Y-56261000D03*
%TD*%
D14*
%TO.C,J13*%
X239268000Y-56809501D03*
%TD*%
D23*
%TO.C,U2*%
X225971100Y-81361502D03*
X225971100Y-82011500D03*
X225971100Y-82661502D03*
X225971100Y-83311500D03*
X230212900Y-83311500D03*
X230212900Y-82661502D03*
X230212900Y-82011500D03*
X230212900Y-81361502D03*
%TD*%
D24*
%TO.C,A1*%
X202115000Y-112395500D03*
D25*
X201815000Y-109365500D03*
X196965000Y-109365500D03*
D24*
X196665000Y-112395500D03*
D26*
X209080000Y-112525500D03*
D27*
X208280000Y-112525500D03*
D28*
X209080000Y-109985500D03*
D29*
X208280000Y-109985500D03*
D30*
X209080000Y-107445500D03*
D31*
X208280000Y-107445500D03*
D28*
X209080000Y-104905500D03*
D29*
X208280000Y-104905500D03*
D28*
X209080000Y-102365500D03*
D29*
X208280000Y-102365500D03*
D28*
X209080000Y-99825500D03*
D29*
X208280000Y-99825500D03*
D28*
X209080000Y-97285500D03*
D29*
X208280000Y-97285500D03*
D30*
X209080000Y-94745500D03*
D31*
X208280000Y-94745500D03*
D28*
X209080000Y-92205500D03*
D29*
X208280000Y-92205500D03*
D28*
X209080000Y-89665500D03*
D29*
X208280000Y-89665500D03*
D28*
X209080000Y-87125500D03*
D29*
X208280000Y-87125500D03*
D28*
X209080000Y-84585500D03*
D29*
X208280000Y-84585500D03*
D30*
X209080000Y-82045500D03*
D31*
X208280000Y-82045500D03*
D28*
X209080000Y-79505500D03*
D29*
X208280000Y-79505500D03*
D28*
X209080000Y-76965500D03*
D29*
X208280000Y-76965500D03*
D28*
X209080000Y-74425500D03*
D29*
X208280000Y-74425500D03*
D28*
X209080000Y-71885500D03*
D29*
X208280000Y-71885500D03*
D30*
X209080000Y-69345500D03*
D31*
X208280000Y-69345500D03*
D28*
X209080000Y-66805500D03*
D29*
X208280000Y-66805500D03*
D28*
X209080000Y-64265500D03*
D29*
X208280000Y-64265500D03*
X190500000Y-64265500D03*
D28*
X189700000Y-64265500D03*
D29*
X190500000Y-66805500D03*
D28*
X189700000Y-66805500D03*
D32*
X190500000Y-69345500D03*
D26*
X189700000Y-69345500D03*
D29*
X190500000Y-71885500D03*
D28*
X189700000Y-71885500D03*
D29*
X190500000Y-74425500D03*
D28*
X189700000Y-74425500D03*
D29*
X190500000Y-76965500D03*
D28*
X189700000Y-76965500D03*
D29*
X190500000Y-79505500D03*
D28*
X189700000Y-79505500D03*
D32*
X190500000Y-82045500D03*
D26*
X189700000Y-82045500D03*
D29*
X190500000Y-84585500D03*
D28*
X189700000Y-84585500D03*
D29*
X190500000Y-87125500D03*
D28*
X189700000Y-87125500D03*
D29*
X190500000Y-89665500D03*
D28*
X189700000Y-89665500D03*
D29*
X190500000Y-92205500D03*
D28*
X189700000Y-92205500D03*
D32*
X190500000Y-94745500D03*
D26*
X189700000Y-94745500D03*
D29*
X190500000Y-97285500D03*
D28*
X189700000Y-97285500D03*
D29*
X190500000Y-99825500D03*
D28*
X189700000Y-99825500D03*
D29*
X190500000Y-102365500D03*
D28*
X189700000Y-102365500D03*
D29*
X190500000Y-104905500D03*
D28*
X189700000Y-104905500D03*
D32*
X190500000Y-107445500D03*
D26*
X189700000Y-107445500D03*
D29*
X190500000Y-109985500D03*
D28*
X189700000Y-109985500D03*
D29*
X190500000Y-112525500D03*
D28*
X189700000Y-112525500D03*
%TD*%
D33*
%TO.C,D2*%
X169812000Y-93726000D03*
X174612000Y-93726000D03*
%TD*%
D16*
%TO.C,C26*%
X222149500Y-54777501D03*
X223874500Y-54777501D03*
%TD*%
%TO.C,C12*%
X222149500Y-99608501D03*
X223874500Y-99608501D03*
%TD*%
%TO.C,C28*%
X222022500Y-48356500D03*
X223747500Y-48356500D03*
%TD*%
D13*
%TO.C,R15*%
X231648000Y-65809500D03*
X231648000Y-63984500D03*
%TD*%
%TO.C,R39*%
X231648000Y-52825000D03*
X231648000Y-51000000D03*
%TD*%
D10*
%TO.C,J9*%
X157861000Y-78740000D03*
D34*
X157861000Y-81280000D03*
X157861000Y-83820000D03*
X157861000Y-86360000D03*
X157861000Y-88900000D03*
%TD*%
D16*
%TO.C,C32*%
X227356500Y-53888501D03*
X229081500Y-53888501D03*
%TD*%
%TO.C,C21*%
X227356500Y-60365501D03*
X229081500Y-60365501D03*
%TD*%
D23*
%TO.C,U11*%
X225971100Y-55453502D03*
X225971100Y-56103500D03*
X225971100Y-56753502D03*
X225971100Y-57403500D03*
X230212900Y-57403500D03*
X230212900Y-56753502D03*
X230212900Y-56103500D03*
X230212900Y-55453502D03*
%TD*%
D10*
%TO.C,J10*%
X163919000Y-48006000D03*
D34*
X166459000Y-48006000D03*
X168999000Y-48006000D03*
X171539000Y-48006000D03*
X174079000Y-48006000D03*
X176619000Y-48006000D03*
%TD*%
D20*
%TO.C,R22*%
X223924500Y-101132501D03*
X222099500Y-101132501D03*
%TD*%
%TO.C,R10*%
X223797500Y-70017501D03*
X221972500Y-70017501D03*
%TD*%
%TO.C,R1*%
X220368500Y-80939501D03*
X218543500Y-80939501D03*
%TD*%
D22*
%TO.C,C25*%
X223874500Y-57825501D03*
X222149500Y-57825501D03*
%TD*%
D15*
%TO.C,D3*%
X200279000Y-49592000D03*
X200279000Y-50992000D03*
%TD*%
D14*
%TO.C,J7*%
X239277000Y-70017501D03*
%TD*%
D16*
%TO.C,C20*%
X227356500Y-67096501D03*
X229081500Y-67096501D03*
%TD*%
D22*
%TO.C,C35*%
X191997500Y-54229000D03*
X190272500Y-54229000D03*
%TD*%
D20*
%TO.C,R33*%
X220495500Y-54777501D03*
X218670500Y-54777501D03*
%TD*%
D16*
%TO.C,C1*%
X222022500Y-80939501D03*
X223747500Y-80939501D03*
%TD*%
D20*
%TO.C,R9*%
X220368500Y-68493501D03*
X218543500Y-68493501D03*
%TD*%
D13*
%TO.C,R27*%
X231648000Y-97686500D03*
X231648000Y-95861500D03*
%TD*%
D14*
%TO.C,J4*%
X239268000Y-89067501D03*
%TD*%
D13*
%TO.C,R19*%
X231648000Y-110386500D03*
X231648000Y-108561500D03*
%TD*%
D22*
%TO.C,C15*%
X223874500Y-90337501D03*
X222149500Y-90337501D03*
%TD*%
D16*
%TO.C,C24*%
X227356500Y-105069501D03*
X229081500Y-105069501D03*
%TD*%
D20*
%TO.C,R30*%
X223924500Y-88813501D03*
X222099500Y-88813501D03*
%TD*%
D21*
%TO.C,R28*%
X233172000Y-95861500D03*
X233172000Y-97686500D03*
%TD*%
D17*
%TO.C,JP3*%
X169169000Y-55581000D03*
D18*
X169169000Y-54281000D03*
D19*
X169169000Y-52981000D03*
%TD*%
D17*
%TO.C,JP1*%
X160419000Y-55631000D03*
D18*
X160419000Y-54331000D03*
D19*
X160419000Y-53031000D03*
%TD*%
D20*
%TO.C,R56*%
X190523500Y-46736000D03*
X188698500Y-46736000D03*
%TD*%
%TO.C,R52*%
X202107000Y-46736000D03*
X200282000Y-46736000D03*
%TD*%
D21*
%TO.C,R53*%
X188722000Y-55856500D03*
X188722000Y-57681500D03*
%TD*%
D23*
%TO.C,U7*%
X225971100Y-100284502D03*
X225971100Y-100934500D03*
X225971100Y-101584502D03*
X225971100Y-102234500D03*
X230212900Y-102234500D03*
X230212900Y-101584502D03*
X230212900Y-100934500D03*
X230212900Y-100284502D03*
%TD*%
D35*
%TO.C,R7*%
X234799500Y-76327000D03*
X236624500Y-76327000D03*
%TD*%
D20*
%TO.C,R29*%
X220495500Y-87289501D03*
X218670500Y-87289501D03*
%TD*%
D16*
%TO.C,C10*%
X222149500Y-105958501D03*
X223874500Y-105958501D03*
%TD*%
D35*
%TO.C,R51*%
X201906500Y-49657000D03*
X203731500Y-49657000D03*
%TD*%
D20*
%TO.C,R18*%
X223924500Y-107482501D03*
X222099500Y-107482501D03*
%TD*%
%TO.C,R58*%
X236497500Y-94234000D03*
X234672500Y-94234000D03*
%TD*%
D13*
%TO.C,R35*%
X231648000Y-59205500D03*
X231648000Y-57380500D03*
%TD*%
D20*
%TO.C,R26*%
X223924500Y-95036501D03*
X222099500Y-95036501D03*
%TD*%
D23*
%TO.C,U12*%
X225971100Y-49032501D03*
X225971100Y-49682499D03*
X225971100Y-50332501D03*
X225971100Y-50982499D03*
X230212900Y-50982499D03*
X230212900Y-50332501D03*
X230212900Y-49682499D03*
X230212900Y-49032501D03*
%TD*%
D14*
%TO.C,J18*%
X198019500Y-43942000D03*
%TD*%
D35*
%TO.C,R48*%
X214098500Y-49657000D03*
X215923500Y-49657000D03*
%TD*%
D22*
%TO.C,C7*%
X223747500Y-64937501D03*
X222022500Y-64937501D03*
%TD*%
%TO.C,C33*%
X216000500Y-54229000D03*
X214275500Y-54229000D03*
%TD*%
D14*
%TO.C,J1*%
X239268000Y-107863501D03*
%TD*%
D20*
%TO.C,R8*%
X236497500Y-69088000D03*
X234672500Y-69088000D03*
%TD*%
D36*
%TO.C,D5*%
X223441500Y-74295000D03*
X221566500Y-74295000D03*
%TD*%
D20*
%TO.C,R61*%
X223416500Y-76200000D03*
X221591500Y-76200000D03*
%TD*%
D14*
%TO.C,J6*%
X239268000Y-76367501D03*
%TD*%
D16*
%TO.C,C16*%
X222149500Y-87289501D03*
X223874500Y-87289501D03*
%TD*%
%TO.C,C18*%
X227356500Y-79796501D03*
X229081500Y-79796501D03*
%TD*%
D14*
%TO.C,J17*%
X186563000Y-43942000D03*
%TD*%
D23*
%TO.C,U8*%
X225971100Y-93894001D03*
X225971100Y-94543999D03*
X225971100Y-95194001D03*
X225971100Y-95843999D03*
X230212900Y-95843999D03*
X230212900Y-95194001D03*
X230212900Y-94543999D03*
X230212900Y-93894001D03*
%TD*%
D22*
%TO.C,C2*%
X223747500Y-83987501D03*
X222022500Y-83987501D03*
%TD*%
D20*
%TO.C,R34*%
X223924500Y-56301501D03*
X222099500Y-56301501D03*
%TD*%
D21*
%TO.C,R47*%
X212598000Y-52427500D03*
X212598000Y-54252500D03*
%TD*%
D20*
%TO.C,R13*%
X220472000Y-61889501D03*
X218647000Y-61889501D03*
%TD*%
D16*
%TO.C,C14*%
X222149500Y-93512501D03*
X223874500Y-93512501D03*
%TD*%
D20*
%TO.C,R17*%
X220495500Y-105958501D03*
X218670500Y-105958501D03*
%TD*%
D21*
%TO.C,R3*%
X233172000Y-83288500D03*
X233172000Y-85113500D03*
%TD*%
D14*
%TO.C,J3*%
X239268000Y-95290501D03*
%TD*%
D23*
%TO.C,U5*%
X225971100Y-62065602D03*
X225971100Y-62715600D03*
X225971100Y-63365602D03*
X225971100Y-64015600D03*
X230212900Y-64015600D03*
X230212900Y-63365602D03*
X230212900Y-62715600D03*
X230212900Y-62065602D03*
%TD*%
D14*
%TO.C,J20*%
X210439000Y-43942000D03*
%TD*%
D21*
%TO.C,R32*%
X233426000Y-89638500D03*
X233426000Y-91463500D03*
%TD*%
D15*
%TO.C,D1*%
X212598000Y-49592000D03*
X212598000Y-50992000D03*
%TD*%
D20*
%TO.C,R57*%
X236497500Y-100584000D03*
X234672500Y-100584000D03*
%TD*%
D21*
%TO.C,R54*%
X188722000Y-52427500D03*
X188722000Y-54252500D03*
%TD*%
D23*
%TO.C,U4*%
X225971100Y-68661502D03*
X225971100Y-69311500D03*
X225971100Y-69961502D03*
X225971100Y-70611500D03*
X230212900Y-70611500D03*
X230212900Y-69961502D03*
X230212900Y-69311500D03*
X230212900Y-68661502D03*
%TD*%
D14*
%TO.C,J8*%
X239268000Y-63500000D03*
%TD*%
D21*
%TO.C,R24*%
X233172000Y-102211500D03*
X233172000Y-104036500D03*
%TD*%
D13*
%TO.C,R23*%
X231648000Y-104036500D03*
X231648000Y-102211500D03*
%TD*%
D22*
%TO.C,C27*%
X223747500Y-51404500D03*
X222022500Y-51404500D03*
%TD*%
%TO.C,C13*%
X223874500Y-96560501D03*
X222149500Y-96560501D03*
%TD*%
D35*
%TO.C,R55*%
X190222500Y-49657000D03*
X192047500Y-49657000D03*
%TD*%
D22*
%TO.C,C5*%
X223747500Y-71541501D03*
X222022500Y-71541501D03*
%TD*%
D13*
%TO.C,R44*%
X220472000Y-113688500D03*
X220472000Y-111863500D03*
%TD*%
D20*
%TO.C,R21*%
X220495500Y-99608501D03*
X218670500Y-99608501D03*
%TD*%
D22*
%TO.C,C34*%
X203681500Y-54229000D03*
X201956500Y-54229000D03*
%TD*%
D21*
%TO.C,R36*%
X233172000Y-57380500D03*
X233172000Y-59205500D03*
%TD*%
D14*
%TO.C,J5*%
X239207000Y-82717501D03*
%TD*%
D21*
%TO.C,R49*%
X200252500Y-55856500D03*
X200252500Y-57681500D03*
%TD*%
D23*
%TO.C,U6*%
X225971100Y-106634502D03*
X225971100Y-107284500D03*
X225971100Y-107934502D03*
X225971100Y-108584500D03*
X230212900Y-108584500D03*
X230212900Y-107934502D03*
X230212900Y-107284500D03*
X230212900Y-106634502D03*
%TD*%
D21*
%TO.C,R12*%
X233172000Y-70588500D03*
X233172000Y-72413500D03*
%TD*%
%TO.C,R50*%
X200279000Y-52427500D03*
X200279000Y-54252500D03*
%TD*%
D23*
%TO.C,U9*%
X225971100Y-87671001D03*
X225971100Y-88320999D03*
X225971100Y-88971001D03*
X225971100Y-89620999D03*
X230212900Y-89620999D03*
X230212900Y-88971001D03*
X230212900Y-88320999D03*
X230212900Y-87671001D03*
%TD*%
D20*
%TO.C,R5*%
X236497500Y-62484000D03*
X234672500Y-62484000D03*
%TD*%
D21*
%TO.C,R16*%
X233172000Y-63984500D03*
X233172000Y-65809500D03*
%TD*%
D16*
%TO.C,C6*%
X222022500Y-68493501D03*
X223747500Y-68493501D03*
%TD*%
D14*
%TO.C,J2*%
X239268000Y-101640501D03*
%TD*%
D20*
%TO.C,R14*%
X223797500Y-63413501D03*
X221972500Y-63413501D03*
%TD*%
%TO.C,R6*%
X236624500Y-55880000D03*
X234799500Y-55880000D03*
%TD*%
%TO.C,R42*%
X236497500Y-106807000D03*
X234672500Y-106807000D03*
%TD*%
%TO.C,R25*%
X220495500Y-93512501D03*
X218670500Y-93512501D03*
%TD*%
D13*
%TO.C,R31*%
X231902000Y-91463500D03*
X231902000Y-89638500D03*
%TD*%
%TO.C,R4*%
X231648000Y-85113500D03*
X231648000Y-83288500D03*
%TD*%
D16*
%TO.C,C31*%
X227229500Y-47594500D03*
X228954500Y-47594500D03*
%TD*%
D20*
%TO.C,R46*%
X214399500Y-46863000D03*
X212574500Y-46863000D03*
%TD*%
D37*
%TO.C,U10*%
X181442000Y-97902000D03*
X181442000Y-111902000D03*
X181442000Y-101152000D03*
X181442000Y-108652000D03*
X158442000Y-111902000D03*
X158442000Y-97902000D03*
%TD*%
M02*
