%TF.GenerationSoftware,KiCad,Pcbnew,9.0.6*%
%TF.CreationDate,2025-12-30T14:41:47-03:00*%
%TF.ProjectId,pico_ecg,7069636f-5f65-4636-972e-6b696361645f,rev?*%
%TF.SameCoordinates,Original*%
%TF.FileFunction,Profile,NP*%
%FSLAX46Y46*%
G04 Gerber Fmt 4.6, Leading zero omitted, Abs format (unit mm)*
G04 Created by KiCad (PCBNEW 9.0.6) date 2025-12-30 14:41:47*
%MOMM*%
%LPD*%
G01*
G04 APERTURE LIST*
%TA.AperFunction,Profile*%
%ADD10C,0.100000*%
%TD*%
G04 APERTURE END LIST*
D10*
X160612811Y-45000000D02*
G75*
G02*
X157387189Y-45000000I-1612811J0D01*
G01*
X157387189Y-45000000D02*
G75*
G02*
X160612811Y-45000000I1612811J0D01*
G01*
X239612811Y-45000000D02*
G75*
G02*
X236387189Y-45000000I-1612811J0D01*
G01*
X236387189Y-45000000D02*
G75*
G02*
X239612811Y-45000000I1612811J0D01*
G01*
X239612811Y-112000000D02*
G75*
G02*
X236387189Y-112000000I-1612811J0D01*
G01*
X236387189Y-112000000D02*
G75*
G02*
X239612811Y-112000000I1612811J0D01*
G01*
X159121317Y-115000000D02*
X238000000Y-115000000D01*
X159793021Y-48768000D02*
G75*
G02*
X157452979Y-48768000I-1170021J0D01*
G01*
X157452979Y-48768000D02*
G75*
G02*
X159793021Y-48768000I1170021J0D01*
G01*
X159121319Y-115000000D02*
G75*
G02*
X156000000Y-112121317I-121319J3000000D01*
G01*
X156000000Y-45000000D02*
X156000000Y-112121317D01*
X238000000Y-42000000D02*
X159000000Y-42000000D01*
X163674691Y-76708000D02*
G75*
G02*
X160633309Y-76708000I-1520691J0D01*
G01*
X160633309Y-76708000D02*
G75*
G02*
X163674691Y-76708000I1520691J0D01*
G01*
X241000000Y-112000000D02*
X241000000Y-45000000D01*
X241000000Y-112000000D02*
G75*
G02*
X238000000Y-115000000I-3000000J0D01*
G01*
X156000000Y-45000000D02*
G75*
G02*
X159000000Y-42000000I3000000J0D01*
G01*
X238000000Y-42000000D02*
G75*
G02*
X241000000Y-45000000I0J-3000000D01*
G01*
X183288021Y-48768000D02*
G75*
G02*
X180947979Y-48768000I-1170021J0D01*
G01*
X180947979Y-48768000D02*
G75*
G02*
X183288021Y-48768000I1170021J0D01*
G01*
X178660691Y-76708000D02*
G75*
G02*
X175619309Y-76708000I-1520691J0D01*
G01*
X175619309Y-76708000D02*
G75*
G02*
X178660691Y-76708000I1520691J0D01*
G01*
M02*
