M48
; DRILL file {KiCad 9.0.6} date 2025-12-30T14:45:32-0300
; FORMAT={-:-/ absolute / metric / decimal}
; #@! TF.CreationDate,2025-12-30T14:45:32-03:00
; #@! TF.GenerationSoftware,Kicad,Pcbnew,9.0.6
; #@! TF.FileFunction,MixedPlating,1,2
FMAT,2
METRIC
; #@! TA.AperFunction,Plated,PTH,ViaDrill
T1C0.400
; #@! TA.AperFunction,Plated,PTH,ComponentDrill
T2C1.000
; #@! TA.AperFunction,Plated,PTH,ComponentDrill
T3C1.400
; #@! TA.AperFunction,NonPlated,NPTH,ComponentDrill
T4C1.850
; #@! TA.AperFunction,NonPlated,NPTH,ComponentDrill
T5C2.200
%
G90
G05
T1
X157.5Y-50.0
X157.5Y-57.5
X157.5Y-65.0
X157.5Y-74.0
X157.5Y-104.0
X157.5Y-114.0
X160.0Y-42.5
X160.0Y-65.0
X160.0Y-70.0
X161.544Y-90.17
X163.068Y-56.769
X167.5Y-42.5
X167.5Y-65.0
X167.5Y-70.0
X167.5Y-75.0
X167.5Y-80.0
X167.5Y-85.0
X167.5Y-97.5
X167.5Y-107.5
X167.5Y-114.0
X170.815Y-54.229
X175.0Y-42.5
X175.0Y-65.0
X175.0Y-70.0
X175.0Y-75.0
X175.0Y-80.0
X175.0Y-90.0
X175.0Y-100.0
X175.0Y-107.5
X175.0Y-114.0
X177.5Y-52.5
X182.5Y-42.5
X182.5Y-52.5
X183.007Y-57.658
X190.0Y-42.5
X190.0Y-60.0
X190.373Y-55.626
X192.5Y-52.5
X193.0Y-114.0
X195.0Y-52.5
X195.58Y-50.673
X196.596Y-56.261
X197.5Y-60.0
X200.0Y-42.5
X205.0Y-52.5
X205.0Y-60.0
X206.0Y-114.0
X207.391Y-49.657
X207.5Y-42.5
X207.5Y-52.5
X209.042Y-48.514
X210.058Y-58.674
X212.5Y-60.0
X212.5Y-65.0
X212.5Y-70.0
X212.5Y-95.0
X214.0Y-114.0
X215.0Y-102.5
X217.5Y-42.5
X217.609Y-50.615
X218.059Y-109.982
X218.186Y-52.324
X218.44Y-57.912
X220.98Y-110.49
X222.5Y-77.5
X223.901Y-110.744
X224.79Y-60.452
X225.0Y-42.5
X225.171Y-114.0
X225.425Y-58.166
X228.092Y-55.372
X228.092Y-61.849
X228.092Y-68.707
X228.092Y-81.153
X228.092Y-87.503
X228.092Y-93.853
X228.092Y-100.203
X228.092Y-106.553
X228.095Y-46.733
X230.886Y-58.293
X232.5Y-42.5
X233.0Y-114.0
X234.95Y-58.928
X235.0Y-65.0
X235.966Y-52.959
X239.522Y-43.307
X239.522Y-113.411
X240.0Y-54.0
X240.0Y-66.0
X240.0Y-73.0
X240.0Y-79.0
X240.0Y-86.0
X240.0Y-92.0
X240.0Y-99.0
X240.0Y-105.0
T2
X157.861Y-78.74
X157.861Y-81.28
X157.861Y-83.82
X157.861Y-86.36
X157.861Y-88.9
X158.442Y-97.902
X158.442Y-111.902
X162.56Y-93.726
X163.919Y-48.006
X165.1Y-93.726
X166.459Y-48.006
X168.999Y-48.006
X171.539Y-48.006
X174.079Y-48.006
X176.619Y-48.006
X181.442Y-97.902
X181.442Y-101.152
X181.442Y-108.652
X181.442Y-111.902
X190.5Y-64.266
X190.5Y-66.805
X190.5Y-69.346
X190.5Y-71.885
X190.5Y-74.425
X190.5Y-76.965
X190.5Y-79.505
X190.5Y-82.045
X190.5Y-84.585
X190.5Y-87.126
X190.5Y-89.665
X190.5Y-92.206
X190.5Y-94.745
X190.5Y-97.285
X190.5Y-99.825
X190.5Y-102.365
X190.5Y-104.905
X190.5Y-107.445
X190.5Y-109.986
X190.5Y-112.525
X208.28Y-64.266
X208.28Y-66.805
X208.28Y-69.346
X208.28Y-71.885
X208.28Y-74.425
X208.28Y-76.965
X208.28Y-79.505
X208.28Y-82.045
X208.28Y-84.585
X208.28Y-87.126
X208.28Y-89.665
X208.28Y-92.206
X208.28Y-94.745
X208.28Y-97.285
X208.28Y-99.825
X208.28Y-102.365
X208.28Y-104.905
X208.28Y-107.445
X208.28Y-109.986
X208.28Y-112.525
T3
X186.563Y-43.942
X192.659Y-43.942
X198.019Y-43.942
X204.369Y-43.942
X210.439Y-43.942
X216.281Y-43.942
X239.141Y-50.389
X239.207Y-82.718
X239.268Y-56.81
X239.268Y-63.5
X239.268Y-76.368
X239.268Y-89.068
X239.268Y-95.291
X239.268Y-101.641
X239.268Y-107.864
X239.277Y-70.018
T4
X196.965Y-109.365
X201.815Y-109.365
T5
X196.665Y-112.395
X202.115Y-112.395
M30
